<svg xmlns="http://www.w3.org/2000/svg" xmlns:xlink="http://www.w3.org/1999/xlink" width="500" zoomAndPan="magnify" viewBox="0 0 375 374.999991" height="500" preserveAspectRatio="xMidYMid meet" version="1.0"><defs><g/><clipPath id="5babac5314"><path d="M 102.679688 118 L 264 118 L 264 255 L 102.679688 255 Z M 102.679688 118 " clip-rule="nonzero"/></clipPath><clipPath id="35cc2e95bb"><path d="M 222 115.433594 L 272.179688 115.433594 L 272.179688 160 L 222 160 Z M 222 115.433594 " clip-rule="nonzero"/></clipPath><clipPath id="899cd1e3c1"><path d="M 222 213 L 272.179688 213 L 272.179688 259.433594 L 222 259.433594 Z M 222 213 " clip-rule="nonzero"/></clipPath></defs><g clip-path="url(#5babac5314)"><path fill="#000000" d="M 259.929688 177.605469 L 204.558594 122.234375 C 203.371094 121.046875 202.003906 120.136719 200.457031 119.496094 C 198.90625 118.855469 197.296875 118.535156 195.621094 118.535156 L 124.046875 118.535156 C 123.347656 118.535156 122.652344 118.566406 121.953125 118.636719 C 121.257812 118.703125 120.566406 118.808594 119.882812 118.945312 C 119.195312 119.078125 118.519531 119.25 117.851562 119.453125 C 117.179688 119.65625 116.523438 119.890625 115.878906 120.160156 C 115.230469 120.425781 114.601562 120.722656 113.984375 121.054688 C 113.367188 121.382812 112.769531 121.742188 112.1875 122.132812 C 111.605469 122.519531 111.042969 122.9375 110.503906 123.378906 C 109.964844 123.824219 109.445312 124.292969 108.949219 124.785156 C 108.457031 125.28125 107.988281 125.796875 107.542969 126.339844 C 107.101562 126.878906 106.683594 127.441406 106.296875 128.023438 C 105.90625 128.601562 105.546875 129.203125 105.21875 129.820312 C 104.890625 130.433594 104.589844 131.066406 104.324219 131.710938 C 104.054688 132.359375 103.820312 133.015625 103.617188 133.683594 C 103.414062 134.355469 103.246094 135.03125 103.109375 135.71875 C 102.972656 136.402344 102.871094 137.09375 102.800781 137.789062 C 102.730469 138.484375 102.699219 139.183594 102.699219 139.882812 L 102.699219 233.203125 C 102.699219 233.902344 102.730469 234.601562 102.800781 235.296875 C 102.871094 235.992188 102.972656 236.683594 103.109375 237.371094 C 103.246094 238.054688 103.414062 238.730469 103.617188 239.402344 C 103.820312 240.070312 104.054688 240.726562 104.324219 241.375 C 104.589844 242.019531 104.890625 242.652344 105.21875 243.269531 C 105.546875 243.882812 105.90625 244.484375 106.296875 245.066406 C 106.683594 245.648438 107.101562 246.207031 107.542969 246.746094 C 107.988281 247.289062 108.457031 247.804688 108.949219 248.300781 C 109.445312 248.792969 109.964844 249.265625 110.503906 249.707031 C 111.042969 250.152344 111.605469 250.566406 112.1875 250.957031 C 112.769531 251.34375 113.367188 251.703125 113.984375 252.03125 C 114.601562 252.363281 115.230469 252.660156 115.878906 252.929688 C 116.523438 253.195312 117.179688 253.429688 117.851562 253.632812 C 118.519531 253.835938 119.195312 254.007812 119.882812 254.144531 C 120.566406 254.28125 121.257812 254.382812 121.953125 254.449219 C 122.652344 254.519531 123.347656 254.554688 124.046875 254.554688 L 195.621094 254.554688 C 197.296875 254.554688 198.90625 254.230469 200.457031 253.589844 C 202.003906 252.949219 203.371094 252.039062 204.558594 250.855469 L 259.929688 195.480469 C 260.515625 194.894531 261.039062 194.253906 261.5 193.5625 C 261.960938 192.875 262.347656 192.144531 262.664062 191.378906 C 262.984375 190.613281 263.222656 189.820312 263.382812 189.007812 C 263.546875 188.195312 263.625 187.371094 263.625 186.542969 C 263.625 185.714844 263.546875 184.890625 263.382812 184.078125 C 263.222656 183.265625 262.984375 182.476562 262.664062 181.707031 C 262.347656 180.941406 261.960938 180.214844 261.5 179.523438 C 261.039062 178.832031 260.515625 178.195312 259.929688 177.605469 Z M 259.929688 177.605469 " fill-opacity="1" fill-rule="nonzero"/></g><g clip-path="url(#35cc2e95bb)"><path fill="#000000" d="M 299.117188 156.296875 L 354.488281 100.921875 C 355.671875 99.738281 356.585938 98.371094 357.226562 96.820312 C 357.867188 95.273438 358.1875 93.660156 358.1875 91.984375 L 358.1875 20.414062 C 358.1875 19.714844 358.15625 19.015625 358.085938 18.320312 C 358.015625 17.625 357.914062 16.933594 357.777344 16.246094 C 357.640625 15.5625 357.472656 14.882812 357.269531 14.214844 C 357.066406 13.546875 356.832031 12.886719 356.5625 12.242188 C 356.296875 11.597656 355.996094 10.964844 355.667969 10.347656 C 355.339844 9.730469 354.980469 9.132812 354.589844 8.550781 C 354.203125 7.96875 353.785156 7.410156 353.34375 6.867188 C 352.898438 6.328125 352.429688 5.808594 351.9375 5.316406 C 351.441406 4.820312 350.921875 4.351562 350.382812 3.910156 C 349.84375 3.464844 349.28125 3.050781 348.699219 2.660156 C 348.117188 2.273438 347.519531 1.914062 346.902344 1.582031 C 346.285156 1.253906 345.65625 0.957031 345.007812 0.6875 C 344.363281 0.421875 343.707031 0.183594 343.035156 -0.0195312 C 342.367188 -0.222656 341.691406 -0.390625 341.003906 -0.527344 C 340.320312 -0.664062 339.628906 -0.765625 338.933594 -0.835938 C 338.234375 -0.902344 337.539062 -0.9375 336.839844 -0.9375 L 243.519531 -0.9375 C 242.820312 -0.9375 242.121094 -0.902344 241.425781 -0.835938 C 240.730469 -0.765625 240.039062 -0.664062 239.351562 -0.527344 C 238.667969 -0.390625 237.988281 -0.222656 237.320312 -0.0195312 C 236.652344 0.183594 235.992188 0.421875 235.347656 0.6875 C 234.703125 0.957031 234.070312 1.253906 233.453125 1.582031 C 232.835938 1.914062 232.238281 2.273438 231.65625 2.660156 C 231.074219 3.050781 230.515625 3.464844 229.972656 3.910156 C 229.433594 4.351562 228.914062 4.820312 228.421875 5.316406 C 227.925781 5.808594 227.457031 6.328125 227.015625 6.867188 C 226.570312 7.410156 226.15625 7.96875 225.765625 8.550781 C 225.378906 9.132812 225.019531 9.730469 224.6875 10.347656 C 224.359375 10.964844 224.0625 11.597656 223.792969 12.242188 C 223.527344 12.886719 223.289062 13.546875 223.085938 14.214844 C 222.882812 14.882812 222.714844 15.5625 222.578125 16.246094 C 222.441406 16.933594 222.339844 17.625 222.269531 18.320312 C 222.203125 19.015625 222.167969 19.714844 222.167969 20.414062 L 222.167969 91.984375 C 222.167969 93.660156 222.488281 95.273438 223.128906 96.820312 C 223.773438 98.371094 224.683594 99.738281 225.867188 100.921875 L 281.242188 156.296875 C 281.828125 156.882812 282.46875 157.40625 283.15625 157.863281 C 283.847656 158.324219 284.578125 158.714844 285.34375 159.03125 C 286.109375 159.347656 286.898438 159.585938 287.714844 159.75 C 288.527344 159.910156 289.347656 159.992188 290.179688 159.992188 C 291.007812 159.992188 291.828125 159.910156 292.644531 159.75 C 293.457031 159.585938 294.246094 159.347656 295.015625 159.03125 C 295.78125 158.714844 296.507812 158.324219 297.199219 157.863281 C 297.890625 157.40625 298.527344 156.882812 299.117188 156.296875 Z M 299.117188 156.296875 " fill-opacity="1" fill-rule="nonzero"/></g><g clip-path="url(#899cd1e3c1)"><path fill="#000000" d="M 281.242188 216.789062 L 225.867188 272.214844 C 224.683594 273.398438 223.773438 274.765625 223.128906 276.3125 C 222.488281 277.863281 222.167969 279.472656 222.167969 281.148438 L 222.167969 352.722656 C 222.167969 353.421875 222.203125 354.121094 222.269531 354.816406 C 222.339844 355.511719 222.441406 356.203125 222.578125 356.886719 C 222.714844 357.574219 222.882812 358.25 223.085938 358.921875 C 223.289062 359.589844 223.527344 360.246094 223.792969 360.894531 C 224.0625 361.539062 224.359375 362.171875 224.6875 362.789062 C 225.019531 363.402344 225.378906 364.003906 225.765625 364.585938 C 226.15625 365.164062 226.570312 365.726562 227.015625 366.265625 C 227.457031 366.808594 227.925781 367.324219 228.421875 367.820312 C 228.914062 368.3125 229.433594 368.78125 229.972656 369.226562 C 230.515625 369.671875 231.074219 370.085938 231.65625 370.472656 C 232.238281 370.863281 232.835938 371.222656 233.453125 371.550781 C 234.070312 371.882812 234.703125 372.179688 235.347656 372.449219 C 235.992188 372.714844 236.652344 372.949219 237.320312 373.152344 C 237.988281 373.355469 238.667969 373.527344 239.351562 373.664062 C 240.039062 373.796875 240.730469 373.902344 241.425781 373.96875 C 242.121094 374.039062 242.820312 374.074219 243.519531 374.074219 L 336.839844 374.074219 C 337.539062 374.074219 338.234375 374.039062 338.933594 373.96875 C 339.628906 373.902344 340.320312 373.796875 341.003906 373.664062 C 341.691406 373.527344 342.367188 373.355469 343.035156 373.152344 C 343.707031 372.949219 344.363281 372.714844 345.007812 372.449219 C 345.65625 372.179688 346.285156 371.882812 346.902344 371.550781 C 347.519531 371.222656 348.117188 370.863281 348.699219 370.472656 C 349.28125 370.085938 349.84375 369.671875 350.382812 369.226562 C 350.921875 368.78125 351.441406 368.3125 351.933594 367.820312 C 352.429688 367.324219 352.898438 366.808594 353.34375 366.265625 C 353.785156 365.726562 354.203125 365.164062 354.589844 364.585938 C 354.980469 364.003906 355.339844 363.402344 355.667969 362.789062 C 355.996094 362.171875 356.296875 361.539062 356.5625 360.894531 C 356.832031 360.246094 357.066406 359.589844 357.269531 358.921875 C 357.472656 358.25 357.640625 357.574219 357.777344 356.886719 C 357.914062 356.203125 358.015625 355.511719 358.085938 354.816406 C 358.15625 354.121094 358.1875 353.421875 358.1875 352.722656 L 358.1875 281.101562 C 358.1875 279.425781 357.867188 277.8125 357.226562 276.265625 C 356.585938 274.71875 355.671875 273.351562 354.488281 272.164062 L 299.117188 216.789062 C 298.527344 216.203125 297.890625 215.683594 297.199219 215.222656 C 296.507812 214.761719 295.78125 214.371094 295.015625 214.054688 C 294.246094 213.738281 293.457031 213.5 292.644531 213.339844 C 291.828125 213.175781 291.007812 213.097656 290.179688 213.097656 C 289.347656 213.097656 288.527344 213.175781 287.714844 213.339844 C 286.898438 213.5 286.109375 213.738281 285.34375 214.054688 C 284.578125 214.371094 283.847656 214.761719 283.15625 215.222656 C 282.46875 215.683594 281.828125 216.203125 281.242188 216.789062 Z M 281.242188 216.789062 " fill-opacity="1" fill-rule="nonzero"/></g><g fill="#ffffff" fill-opacity="1"><g transform="translate(212.968495, 296.441289)"><g><path d="M 4.46875 0.171875 C 3.78125 0.171875 3.171875 0.00390625 2.640625 -0.328125 C 2.109375 -0.660156 1.691406 -1.160156 1.390625 -1.828125 C 1.097656 -2.492188 0.953125 -3.320312 0.953125 -4.3125 C 0.953125 -5.289062 1.109375 -6.113281 1.421875 -6.78125 C 1.734375 -7.457031 2.160156 -7.957031 2.703125 -8.28125 C 3.253906 -8.613281 3.894531 -8.78125 4.625 -8.78125 C 5.195312 -8.78125 5.710938 -8.671875 6.171875 -8.453125 C 6.628906 -8.242188 7.019531 -7.890625 7.34375 -7.390625 L 7.515625 -7.421875 L 7.515625 -12.078125 L 8.78125 -12.078125 L 8.78125 0 L 7.515625 0 L 7.515625 -1.265625 L 7.34375 -1.296875 C 7.0625 -0.867188 6.679688 -0.515625 6.203125 -0.234375 C 5.722656 0.0351562 5.144531 0.171875 4.46875 0.171875 Z M 4.875 -0.984375 C 5.675781 -0.984375 6.316406 -1.253906 6.796875 -1.796875 C 7.273438 -2.347656 7.515625 -3.1875 7.515625 -4.3125 C 7.515625 -5.4375 7.273438 -6.269531 6.796875 -6.8125 C 6.316406 -7.363281 5.675781 -7.640625 4.875 -7.640625 C 4.039062 -7.640625 3.398438 -7.367188 2.953125 -6.828125 C 2.503906 -6.296875 2.28125 -5.457031 2.28125 -4.3125 C 2.28125 -2.09375 3.144531 -0.984375 4.875 -0.984375 Z M 4.875 -0.984375 "/></g></g></g></svg>